<?xml version="1.0" standalone="no"?>
<!DOCTYPE svg PUBLIC "-//W3C//DTD SVG 20010904//EN"
 "http://www.w3.org/TR/2001/REC-SVG-20010904/DTD/svg10.dtd">
<svg version="1.0" xmlns="http://www.w3.org/2000/svg"
 width="418.000000pt" height="596.000000pt" viewBox="0 0 418.000000 596.000000"
 preserveAspectRatio="xMidYMid meet">

<g transform="translate(0.000000,596.000000) scale(0.100000,-0.100000)"
fill="#000000" stroke="none">
<path d="M1860 5189 c-58 -16 -118 -34 -135 -41 -32 -12 -195 -138 -195 -150
0 -5 -6 -8 -14 -8 -7 0 -32 -26 -54 -58 -23 -33 -57 -71 -77 -86 -19 -15 -35
-34 -35 -42 0 -8 -7 -26 -16 -39 -9 -13 -13 -29 -10 -34 6 -9 -18 -47 -84
-133 -25 -33 -40 -80 -34 -106 3 -10 -4 -42 -15 -70 -26 -65 -26 -83 -2 -113
13 -17 21 -49 26 -109 3 -47 18 -132 32 -190 15 -64 21 -106 15 -108 -11 -3 3
-69 20 -89 5 -7 9 -58 8 -115 -2 -57 -2 -115 -2 -130 1 -16 -3 -28 -8 -28 -5
0 -8 -101 -6 -242 2 -212 5 -253 24 -320 37 -132 97 -271 141 -328 16 -19 39
-55 52 -80 27 -53 35 -85 13 -56 -17 24 -19 8 -3 -47 7 -27 26 -51 70 -87 33
-28 65 -47 71 -44 7 4 8 2 4 -4 -4 -6 4 -16 16 -23 19 -9 21 -9 11 2 -19 20
-16 29 12 29 14 0 25 -4 25 -8 0 -4 15 -14 34 -20 19 -7 53 -28 77 -47 25 -20
55 -34 69 -34 14 0 50 -4 80 -11 78 -16 170 -18 207 -4 17 7 34 10 37 6 3 -3
6 -1 6 4 0 5 21 16 48 24 26 7 62 22 80 32 18 10 37 16 42 13 4 -2 13 2 20 10
7 8 23 15 36 15 13 0 24 5 24 10 0 6 11 15 25 20 14 5 25 14 25 20 0 6 4 8 10
5 5 -3 19 2 30 13 11 10 33 25 48 33 15 8 36 24 47 36 11 13 29 23 39 23 11 0
16 3 13 7 -4 3 2 12 12 20 11 7 22 26 26 43 4 16 14 34 23 39 9 5 14 12 10 16
-3 3 10 23 30 43 21 20 38 39 38 42 8 30 18 50 25 50 5 0 9 11 9 24 0 13 7 27
16 30 8 3 13 10 10 15 -4 5 -1 11 4 13 6 2 12 10 13 19 2 9 10 27 18 40 19 30
45 100 59 159 16 69 25 428 11 414 -7 -6 -14 -42 -16 -79 -2 -37 -7 -71 -12
-74 -4 -3 -8 -27 -8 -53 0 -36 -3 -44 -12 -36 -10 8 -13 6 -13 -6 0 -9 -5 -16
-11 -16 -6 0 -8 -7 -5 -16 4 -11 2 -15 -8 -11 -9 4 -12 0 -10 -11 3 -9 0 -30
-5 -47 l-9 -30 -7 33 c-4 17 -12 32 -17 32 -6 0 -7 -11 -4 -26 4 -16 3 -23 -3
-19 -7 3 -8 0 -5 -10 5 -11 2 -14 -11 -9 -15 6 -16 4 -5 -16 18 -34 14 -112
-6 -127 -9 -7 -20 -10 -25 -8 -4 3 -11 -4 -14 -16 -7 -21 -8 -20 -27 10 -21
32 -34 42 -25 16 4 -8 2 -17 -3 -20 -6 -4 -10 -15 -10 -26 0 -11 -4 -17 -10
-14 -5 3 -10 0 -10 -9 0 -8 -5 -16 -12 -18 -7 -3 -12 -25 -13 -54 0 -48 -1
-49 -28 -46 -26 3 -28 2 -17 -18 11 -21 11 -21 -19 -6 -23 12 -31 13 -34 3 -2
-6 -3 -4 -2 6 2 9 -1 17 -6 17 -5 0 -9 13 -9 28 0 16 -7 37 -15 48 -14 18 -14
17 -15 -14 0 -20 4 -31 10 -27 6 4 5 -4 -1 -19 -7 -14 -17 -22 -23 -19 -6 4
-5 -1 3 -10 7 -9 10 -17 6 -17 -4 0 -1 -8 6 -17 12 -14 12 -16 0 -8 -11 6 -13
4 -8 -9 5 -13 1 -19 -12 -23 -11 -3 -18 -10 -16 -16 6 -17 -30 -57 -56 -62
-13 -3 -27 -9 -33 -15 -16 -16 -23 -12 -31 17 -5 20 -8 24 -15 13 -5 -8 -6
-18 -3 -23 3 -5 -6 -1 -21 8 -14 10 -26 22 -26 27 0 5 -5 6 -11 3 -6 -4 -13 2
-16 14 -6 23 -19 28 -26 9 -2 -7 -3 -5 -2 4 2 10 -4 23 -12 30 -10 8 -13 22
-9 40 4 18 1 28 -7 28 -8 0 -8 3 2 9 8 5 11 16 8 24 -3 9 1 18 9 21 8 3 14 11
14 18 0 9 -3 8 -10 -2 -6 -10 -10 -11 -10 -2 0 7 -14 12 -36 12 -21 0 -33 4
-29 10 9 14 -151 10 -197 -5 -21 -7 -36 -9 -33 -6 2 4 -10 5 -27 3 -21 -3 -26
-7 -17 -13 8 -5 11 -9 6 -9 -4 0 -1 -13 7 -29 9 -16 12 -32 8 -37 -4 -5 0 -3
9 4 19 14 30 6 22 -15 -3 -8 0 -18 7 -23 7 -5 -2 -10 -25 -14 -21 -4 -35 -12
-32 -19 2 -6 -12 -26 -31 -43 -19 -17 -32 -36 -28 -42 6 -11 -48 -8 -89 5 -22
6 -65 49 -65 64 0 5 -7 9 -16 9 -8 0 -12 5 -9 10 3 6 1 10 -4 10 -6 0 -10 3
-10 8 5 28 -1 34 -18 21 -10 -8 -8 -2 6 16 19 25 20 30 7 33 -18 4 -20 14 -7
28 6 5 12 20 14 34 10 52 27 81 44 78 13 -2 21 7 28 30 10 34 19 38 59 23 17
-7 26 -7 29 2 2 8 36 11 113 10 85 -2 102 0 79 8 -16 6 -50 11 -75 12 -39 2
-45 5 -48 26 -3 19 -6 21 -14 10 -7 -11 -9 -8 -5 9 6 26 6 26 -40 7 -19 -8
-37 -15 -39 -15 -2 0 -4 7 -4 15 0 8 5 15 12 15 6 0 23 10 36 23 14 12 22 15
18 7 -5 -9 -2 -8 7 3 8 9 20 17 26 17 7 0 9 5 5 12 -5 7 -2 9 8 5 9 -3 21 0
28 6 10 9 11 9 5 -2 -6 -11 -3 -13 16 -6 13 4 53 8 89 9 44 1 65 5 66 14 1 6
2 20 3 30 1 11 7 6 17 -15 18 -37 46 -43 76 -16 10 9 18 12 18 7 0 -5 9 -10
20 -10 13 0 20 7 20 19 0 16 2 17 15 7 11 -9 13 -15 5 -20 -8 -5 -6 -10 6 -14
12 -5 23 0 34 14 16 21 50 19 50 -2 0 -7 -5 -6 -14 1 -10 9 -15 8 -19 -4 -4
-8 -3 -14 1 -12 4 1 34 -15 67 -35 33 -21 53 -38 45 -39 -28 -3 -55 -1 -90 7
l-34 7 22 -28 c12 -15 21 -29 20 -31 -6 -4 -114 -16 -194 -19 -44 -3 -91 -9
-105 -15 -19 -8 -9 -9 46 -5 39 2 115 7 170 11 55 3 112 10 128 16 41 16 87
-6 87 -42 0 -31 25 -48 34 -24 3 9 6 29 6 45 0 18 4 28 10 24 6 -3 10 0 10 7
0 8 3 9 8 3 4 -5 12 -11 18 -12 11 -2 11 16 0 65 -3 14 -1 20 6 16 14 -9 0 36
-19 58 -21 24 -146 84 -165 80 -5 -1 -8 3 -8 9 0 7 -10 9 -24 5 -14 -3 -28 -2
-31 4 -4 6 1 7 12 3 15 -6 16 -4 5 9 -10 12 -31 15 -96 14 -88 -2 -136 -20
-136 -54 0 -13 -2 -14 -9 -3 -7 11 -10 9 -16 -8 -3 -11 -11 -21 -17 -21 -7 0
-7 5 1 14 8 10 6 19 -9 38 l-20 26 39 6 c20 3 46 15 56 26 10 11 25 18 32 16
7 -3 15 -1 18 4 4 6 23 10 45 10 33 0 37 -3 33 -20 -7 -25 22 -27 55 -4 29 20
29 36 -1 25 -15 -6 -26 -4 -35 5 -21 22 -104 18 -136 -7 -42 -33 -101 -37
-138 -9 -45 33 -113 39 -141 12 -26 -25 -44 -18 -63 25 -11 25 -12 25 -13 6
-1 -25 41 -79 70 -88 21 -7 16 -25 -7 -25 -26 0 -45 -25 -31 -40 7 -7 1 -5
-13 3 -18 12 -29 13 -40 6 -12 -9 -11 -10 4 -5 16 6 17 4 6 -9 -7 -9 -20 -15
-29 -14 -30 3 -42 -1 -36 -11 3 -6 -1 -7 -9 -4 -8 3 -29 -4 -45 -15 -31 -23
-46 -27 -36 -11 3 6 4 10 1 10 -3 0 -16 -24 -30 -52 -23 -50 -28 -90 -13 -104
4 -4 4 -18 1 -30 -4 -15 -2 -24 5 -24 6 0 11 -7 11 -15 0 -14 12 -19 33 -16 4
1 2 -8 -5 -18 -7 -11 -17 -17 -23 -13 -5 3 -4 -2 4 -11 11 -15 11 -17 -1 -17
-8 0 -21 -12 -28 -27 -9 -19 -15 -23 -17 -13 -2 8 -16 24 -30 34 -15 11 -23
13 -18 6 5 -9 4 -11 -3 -6 -15 9 -16 36 -2 36 6 0 5 6 -2 14 -10 10 -15 11
-21 2 -5 -6 -6 2 -2 18 5 25 4 28 -8 18 -12 -10 -16 -9 -20 8 -3 11 -1 18 4
14 17 -10 9 13 -11 31 -20 18 -21 18 -15 -1 6 -17 6 -17 -5 -1 -6 9 -8 21 -5
27 6 9 -27 6 -44 -5 -5 -3 -13 0 -17 6 -4 8 -3 9 4 5 7 -4 12 -4 13 1 7 48 5
72 -4 66 -6 -4 -8 0 -4 10 4 12 2 14 -10 10 -12 -5 -15 -2 -10 10 3 9 3 16 -1
15 -4 -1 -15 2 -25 7 -15 6 -15 10 -5 23 7 9 9 13 3 11 -11 -7 -46 26 -38 35
4 3 -2 16 -13 28 -12 13 -13 18 -4 13 13 -8 13 -7 1 8 -12 15 -13 47 -6 180 5
89 9 275 11 412 1 172 7 276 17 335 9 47 16 92 16 100 4 57 20 149 29 170 15
34 48 82 56 81 19 -3 29 0 23 5 -6 6 67 84 78 84 3 0 23 18 44 39 22 22 42 37
45 34 3 -4 6 -2 6 4 0 15 133 83 163 83 13 0 44 7 68 16 34 12 64 14 134 9 50
-4 106 -8 126 -9 19 -1 41 -6 49 -11 9 -6 11 -4 5 6 -7 12 -6 12 7 1 13 -10
17 -10 22 4 4 11 14 15 31 12 14 -3 25 -1 25 5 0 5 8 3 17 -4 14 -12 16 -12 8
0 -5 10 -4 12 4 7 17 -11 91 -15 96 -5 6 9 63 3 79 -9 10 -8 58 -24 79 -26 4
-1 11 -6 15 -12 6 -10 47 -29 47 -22 0 1 18 -8 40 -22 22 -14 42 -23 43 -21 7
6 92 -81 92 -95 0 -8 4 -14 9 -14 5 0 13 -9 16 -20 3 -11 15 -20 26 -20 10 0
19 -5 19 -11 0 -6 7 -9 15 -5 8 3 18 0 22 -7 5 -7 15 -12 23 -12 9 0 14 -7 12
-19 -2 -11 4 -26 13 -32 14 -10 18 -33 20 -113 2 -61 -1 -103 -7 -107 -6 -4
-6 -9 -2 -13 9 -6 40 -83 51 -126 3 -11 3 -60 2 -110 -6 -141 0 -457 9 -489 5
-20 8 1 8 65 -1 129 5 199 15 199 5 0 9 8 9 18 0 10 7 27 15 39 8 12 12 29 9
37 -3 9 -2 22 4 29 5 6 18 46 27 87 10 41 30 109 44 150 17 52 25 97 26 145 0
39 5 73 10 77 6 5 5 16 -4 30 -13 21 -13 22 3 8 16 -13 18 -12 14 10 -2 16 2
24 10 23 33 -7 -11 85 -52 106 -17 9 -22 19 -18 34 4 15 2 18 -8 12 -10 -6
-12 -4 -7 8 5 13 1 17 -14 17 -14 0 -19 5 -16 14 3 8 1 17 -6 19 -7 3 0 10 16
16 24 10 26 13 15 31 -9 15 -20 19 -35 15 -19 -4 -23 -1 -23 19 0 14 -4 28
-10 31 -5 3 -10 0 -10 -8 0 -8 -9 -22 -19 -31 -19 -17 -19 -16 -9 26 13 54 12
79 -3 88 -6 4 -9 12 -5 18 3 5 0 15 -8 21 -8 7 -12 22 -9 34 4 18 3 19 -6 7
-9 -13 -11 -13 -11 3 0 9 -4 17 -10 17 -5 0 -7 7 -4 15 14 35 -185 185 -247
185 -11 0 -17 4 -14 10 3 5 0 7 -9 4 -8 -3 -45 3 -83 14 -67 19 -240 52 -380
72 -125 18 -227 12 -343 -21z m715 -63 c19 -8 35 -18 35 -21 0 -5 -70 21 -79
30 -8 9 10 5 44 -9z m412 -358 c-3 -8 -6 -5 -6 6 -1 11 2 17 5 13 3 -3 4 -12
1 -19z m97 -118 c-10 -4 -21 -6 -24 -3 -8 7 24 22 34 16 5 -4 1 -10 -10 -13z
m71 -220 c3 -5 1 -10 -4 -10 -6 0 -11 5 -11 10 0 6 2 10 4 10 3 0 8 -4 11 -10z
m-1182 -1135 c38 -11 90 -43 75 -46 -2 0 -26 -1 -55 -2 -45 -2 -54 1 -64 21
-7 12 -16 22 -21 22 -5 0 -6 5 -3 10 8 13 11 13 68 -5z m-313 -189 c0 -2 -8
-10 -17 -17 -16 -13 -17 -12 -4 4 13 16 21 21 21 13z m1248 -88 c-2 -6 -10
-14 -16 -16 -7 -2 -10 2 -6 12 7 18 28 22 22 4z m-1021 -34 c-3 -3 -12 -4 -19
-1 -8 3 -5 6 6 6 11 1 17 -2 13 -5z m878 -84 c3 -5 1 -10 -4 -10 -6 0 -11 5
-11 10 0 6 2 10 4 10 3 0 8 -4 11 -10z m-525 -221 c0 -5 -4 -9 -10 -9 -5 0
-10 7 -10 16 0 8 5 12 10 9 6 -3 10 -10 10 -16z m-19 -15 c14 -8 12 -13 -14
-34 -25 -20 -30 -21 -24 -7 4 10 7 31 7 45 0 15 4 22 8 16 4 -6 14 -15 23 -20z
m-131 1 c-6 -8 -9 -19 -5 -25 4 -6 4 -23 0 -37 -6 -24 -7 -25 -20 -7 -19 26
-18 36 5 62 23 24 39 30 20 7z m150 -60 c0 -5 -4 -4 -9 4 -7 11 -11 10 -20 -5
-6 -11 -11 -16 -11 -11 0 4 5 16 12 27 9 14 14 16 20 7 4 -7 8 -16 8 -22z"/>
<path d="M1550 4090 c0 -4 -26 -19 -58 -34 -70 -34 -102 -78 -107 -147 -3 -49
-3 -49 26 -47 18 1 25 6 19 12 -10 10 6 22 79 56 24 11 46 18 49 15 3 -3 10
-1 16 4 14 11 83 18 91 9 4 -4 13 -4 20 -2 18 7 97 -15 90 -26 -3 -4 -49 -11
-103 -15 -108 -8 -132 -15 -162 -45 -14 -14 -28 -19 -43 -15 -17 5 -19 4 -7
-4 9 -7 11 -14 5 -18 -5 -5 -11 -21 -13 -37 -2 -21 5 -36 27 -58 17 -17 31
-36 31 -43 0 -35 217 -43 278 -11 26 14 25 15 -25 11 -58 -4 -72 5 -47 30 11
11 26 14 43 10 20 -4 22 -3 11 5 -10 7 -11 10 -2 10 7 0 20 16 29 35 9 19 19
35 22 35 3 0 21 -9 39 -20 43 -27 42 -50 -2 -50 -19 0 -38 -4 -41 -10 -6 -9
68 -5 103 6 6 2 12 -2 12 -8 0 -6 3 -9 6 -5 9 8 -5 44 -24 64 -16 16 -16 16 1
10 10 -4 17 -2 17 5 0 7 5 6 15 -2 8 -7 15 -19 15 -26 0 -8 4 -14 9 -14 5 0
11 -9 14 -20 3 -11 0 -20 -6 -20 -8 0 -7 -4 2 -9 9 -6 10 -11 2 -15 -6 -4 -11
-12 -11 -18 0 -20 26 11 45 53 17 37 17 47 6 117 -8 50 -20 85 -33 99 -11 12
-17 26 -13 33 4 6 1 9 -7 8 -7 -2 -12 3 -10 10 1 6 -4 12 -12 12 -8 0 -21 6
-28 13 -12 12 -75 38 -88 36 -3 0 -18 4 -33 10 -16 6 -26 7 -23 3 2 -4 -4 -8
-14 -8 -10 0 -16 4 -13 9 3 5 -11 7 -30 4 -20 -3 -39 -2 -42 2 -9 8 -125 9
-125 1z m226 -204 c12 -12 8 -14 -29 -10 -23 3 -54 4 -69 4 -16 0 -28 4 -28
10 0 16 109 12 126 -4z m-119 -108 c12 -21 19 -38 17 -38 -3 0 -23 9 -44 20
-39 20 -52 44 -27 53 25 8 34 3 54 -35z m-130 -54 c-3 -3 -12 -4 -19 -1 -8 3
-5 6 6 6 11 1 17 -2 13 -5z m163 -14 c0 -5 -4 -10 -10 -10 -5 0 -10 5 -10 10
0 6 5 10 10 10 6 0 10 -4 10 -10z"/>
<path d="M2563 4072 c-18 -2 -33 -8 -33 -13 0 -5 -26 -7 -64 -3 -70 7 -105 -7
-100 -39 1 -9 -2 -15 -6 -12 -5 3 -12 0 -15 -6 -4 -5 -13 -8 -21 -5 -13 5 -18
-5 -15 -31 1 -6 -3 -14 -9 -18 -5 -3 -10 -1 -10 6 0 8 -4 8 -15 -1 -8 -7 -12
-16 -9 -21 3 -5 0 -9 -6 -9 -6 0 -4 -10 5 -24 14 -21 14 -24 0 -29 -10 -4 -15
-19 -15 -43 0 -31 2 -35 15 -24 8 7 21 10 30 7 8 -4 17 -2 20 3 4 6 10 10 14
10 11 0 5 -48 -8 -64 -9 -10 -8 -15 5 -20 11 -4 15 -2 11 8 -4 11 12 24 54 45
45 22 59 26 59 15 0 -8 7 -28 16 -45 14 -28 18 -30 67 -27 48 3 53 6 67 35 8
18 23 33 32 33 38 0 31 -46 -8 -56 -13 -3 -24 -14 -24 -23 0 -9 3 -12 8 -6 9
12 72 15 72 4 0 -5 -5 -9 -11 -9 -5 0 -7 -4 -4 -10 10 -16 43 -12 63 8 10 9
25 18 33 20 26 6 39 28 42 70 2 36 6 44 26 49 14 3 26 1 31 -7 5 -8 17 -10 36
-6 22 6 25 9 13 17 -12 8 -12 10 1 19 9 5 10 10 3 10 -6 0 -10 11 -8 25 1 14
-3 25 -9 25 -18 1 -47 67 -33 74 7 4 0 4 -15 2 -16 -2 -28 1 -28 5 0 5 -7 9
-15 9 -8 0 -15 5 -15 11 0 5 -4 8 -8 5 -5 -3 -20 5 -32 17 -29 26 -40 28 -85
16 -19 -6 -43 -6 -52 -2 -10 5 -33 7 -50 5z m143 -128 c20 -8 46 -25 59 -37
12 -12 31 -27 41 -34 16 -10 17 -13 4 -22 -10 -7 -19 -6 -29 2 -12 9 -13 9 -7
0 9 -16 -6 -17 -22 -1 -7 7 -12 9 -12 5 0 -4 -17 0 -37 8 -55 23 -111 34 -186
36 -93 3 -90 21 7 43 74 17 141 17 182 0z m-91 -67 c12 -10 14 -16 7 -21 -7
-4 -12 -3 -12 1 0 5 -29 7 -65 5 -53 -2 -65 0 -65 13 0 12 12 15 58 15 33 0
66 -6 77 -13z"/>
<path d="M1230 3770 c30 -59 50 -70 50 -29 0 25 -48 89 -66 89 -10 0 -6 -17
16 -60z"/>
<path d="M3105 3790 c-3 -5 -1 -10 4 -10 6 0 11 5 11 10 0 6 -2 10 -4 10 -3 0
-8 -4 -11 -10z"/>
<path d="M2366 3739 c3 -5 24 -9 46 -9 23 0 38 3 35 6 -10 10 -87 12 -81 3z"/>
<path d="M1830 3710 c0 -5 5 -10 11 -10 5 0 7 5 4 10 -3 6 -8 10 -11 10 -2 0
-4 -4 -4 -10z"/>
<path d="M1261 3674 c0 -11 3 -14 6 -6 3 7 2 16 -1 19 -3 4 -6 -2 -5 -13z"/>
<path d="M1554 3649 c-7 -12 130 -20 165 -10 19 6 39 8 45 4 6 -3 8 -2 3 2 -8
10 -207 13 -213 4z"/>
<path d="M2518 3623 c7 -3 16 -2 19 1 4 3 -2 6 -13 5 -11 0 -14 -3 -6 -6z"/>
<path d="M2820 3049 c0 -5 5 -7 10 -4 6 3 10 8 10 11 0 2 -4 4 -10 4 -5 0 -10
-5 -10 -11z"/>
<path d="M2825 3008 c-4 -16 -11 -26 -15 -23 -5 3 -6 -4 -3 -16 5 -19 7 -18
20 12 7 18 12 37 9 43 -2 6 -7 -1 -11 -16z"/>
<path d="M2565 2970 c-3 -5 -2 -17 3 -26 8 -14 10 -12 10 9 0 29 -3 33 -13 17z"/>
<path d="M2590 2781 c0 -4 9 -16 19 -25 19 -17 19 -17 14 2 -5 20 -33 39 -33
23z"/>
<path d="M1418 2387 c-31 -65 -117 -194 -151 -223 -12 -11 -62 -35 -112 -53
-49 -18 -178 -73 -285 -121 -326 -147 -615 -269 -698 -295 -57 -18 -108 -58
-143 -113 l-29 -46 0 -768 0 -768 1208 0 1207 0 -2 337 c-2 476 -13 634 -58
783 l-13 45 -2 -45 c-2 -25 -5 -35 -7 -22 -2 12 -11 22 -19 22 -17 0 -18 12
-3 27 7 7 6 15 -4 25 -17 17 -19 109 -2 120 6 5 2 8 -9 8 -15 0 -16 3 -6 15
10 12 10 15 -1 15 -12 0 -12 2 0 9 7 5 12 14 9 21 -2 7 -14 4 -33 -12 -19 -14
-25 -16 -16 -5 12 15 12 17 -3 11 -19 -7 -23 25 -4 44 9 9 7 12 -13 13 -13 0
-19 3 -12 5 8 4 9 14 3 34 -5 18 -5 32 1 35 5 4 8 28 6 56 -3 53 9 67 19 22 3
-16 7 -34 10 -41 2 -7 -1 -10 -6 -7 -13 8 -13 3 2 -32 6 -15 12 -32 13 -38 1
-11 25 -8 39 5 4 4 3 23 -3 43 -14 42 -7 61 38 103 20 18 67 62 105 98 38 36
72 66 77 66 21 0 6 30 -42 83 -60 68 -120 90 -241 91 -42 1 -74 5 -71 9 3 5
-5 3 -18 -3 -79 -42 -227 -169 -193 -167 11 1 23 -8 29 -20 5 -13 16 -23 24
-23 11 0 12 -3 3 -12 -8 -8 -15 -8 -27 2 -8 7 -15 8 -15 3 0 -5 -18 -9 -41 -9
-38 1 -54 -8 -73 -41 -4 -8 17 -40 53 -80 34 -38 69 -78 79 -89 18 -21 18 -24
-14 -120 -75 -220 -104 -448 -104 -823 0 -134 -2 -242 -4 -240 -2 2 -18 69
-35 149 -18 80 -49 224 -71 320 -37 165 -73 330 -125 570 -13 58 -46 209 -74
335 -29 127 -64 284 -78 350 -19 84 -29 162 -33 260 l-5 140 -27 -58z m829
-474 c3 -8 -6 -12 -25 -10 -16 1 -29 7 -29 12 0 15 49 13 54 -2z m37 -4 c-6
-11 -24 -2 -24 11 0 5 7 7 15 4 8 -4 12 -10 9 -15z m-114 2 c0 -5 -9 -7 -20
-4 -11 3 -20 7 -20 9 0 2 9 4 20 4 11 0 20 -4 20 -9z m-90 -240 c0 -13 -29 -8
-34 5 -3 7 2 10 15 7 10 -3 19 -9 19 -12z m269 -727 c-1 -47 -5 -80 -9 -74 -4
7 -6 20 -5 29 2 9 4 42 4 74 1 31 3 57 6 57 3 0 5 -39 4 -86z m31 -55 c4 -14
4 -32 -1 -40 -6 -10 -8 -9 -8 6 1 11 -2 38 -5 60 -3 22 -3 31 0 20 3 -11 9
-32 14 -46z m-33 -76 c-3 -10 -5 -4 -5 12 0 17 2 24 5 18 2 -7 2 -21 0 -30z
m44 -166 c-13 -13 -15 1 -4 30 7 17 8 17 11 -1 2 -10 -1 -23 -7 -29z m-35 -29
c-3 -24 -5 -53 -5 -65 -1 -12 -8 -29 -17 -37 -8 -9 -12 -16 -7 -16 4 0 2 -4
-6 -9 -11 -7 -10 -13 4 -35 10 -15 16 -29 13 -31 -2 -2 -12 11 -23 30 -10 19
-23 35 -29 35 -6 0 -4 5 4 10 12 8 12 10 -5 10 -18 1 -19 1 -2 11 9 5 17 17
17 24 0 8 7 15 15 15 9 0 15 9 15 25 0 23 19 75 27 75 2 0 2 -19 -1 -42z m-59
-40 c-3 -8 -6 -5 -6 6 -1 11 2 17 5 13 3 -3 4 -12 1 -19z m-7 -32 c0 -8 -9
-14 -19 -13 -15 1 -17 4 -9 14 14 17 28 16 28 -1z m-30 -30 c0 -2 -7 -7 -16
-10 -8 -3 -12 -2 -9 4 6 10 25 14 25 6z m-92 -91 c-3 -3 -9 2 -12 12 -6 14 -5
15 5 6 7 -7 10 -15 7 -18z m38 -25 c0 -12 -4 -16 -9 -11 -5 5 -6 14 -3 20 10
15 12 14 12 -9z m149 -51 c10 -14 1 -21 -19 -13 -9 3 -13 10 -10 15 7 12 21
11 29 -2z m-199 -14 c-1 -8 -5 -17 -8 -21 -5 -4 -4 16 1 34 3 9 9 -1 7 -13z
m188 -67 c17 -12 28 -9 20 4 -4 6 -3 8 2 5 5 -3 11 -20 12 -37 2 -26 0 -29
-12 -18 -10 9 -11 15 -2 20 10 7 -5 13 -26 9 -5 0 -8 4 -8 11 0 6 -3 9 -6 5
-4 -3 -13 1 -21 9 -8 8 -20 11 -26 7 -7 -3 -8 -2 -4 3 12 12 30 12 39 -1 5 -6
8 -1 9 10 l1 20 5 -20 c3 -11 10 -23 17 -27z m-200 25 c-5 -5 -12 -12 -16 -18
-4 -6 -8 -2 -8 8 0 9 7 17 17 17 9 0 12 -3 7 -7z m186 -58 c10 -12 10 -15 -3
-15 -8 0 -17 7 -21 15 -3 8 -2 15 3 15 5 0 14 -7 21 -15z m23 -60 c-3 -9 -8
-14 -10 -11 -3 3 -2 9 2 15 9 16 15 13 8 -4z m29 -3 c3 -9 2 -26 -2 -37 -6
-15 -8 -10 -8 18 0 40 3 47 10 19z"/>
<path d="M2773 2380 c4 -81 -9 -235 -28 -317 -16 -70 -39 -216 -60 -383 -8
-63 -19 -140 -25 -170 -12 -72 -15 -96 -40 -280 -12 -85 -28 -200 -35 -255 -8
-55 -31 -215 -50 -355 -44 -314 -84 -579 -91 -602 -5 -17 41 -18 865 -18 l871
0 0 759 0 760 -35 68 c-47 88 -106 149 -164 167 -65 20 -300 108 -404 151 -48
20 -93 33 -100 29 -6 -4 -9 -4 -5 1 10 11 -362 198 -459 229 -80 27 -84 30
-133 94 -28 37 -64 94 -81 127 l-30 60 4 -65z"/>
<path d="M2333 1245 c0 -33 2 -45 4 -27 2 18 2 45 0 60 -2 15 -4 0 -4 -33z"/>
</g>
</svg>
