<?xml version="1.0" standalone="no"?>
<!DOCTYPE svg PUBLIC "-//W3C//DTD SVG 20010904//EN"
 "http://www.w3.org/TR/2001/REC-SVG-20010904/DTD/svg10.dtd">
<svg version="1.0" xmlns="http://www.w3.org/2000/svg"
 width="500.000000pt" height="500.000000pt" viewBox="0 0 500.000000 500.000000"
 preserveAspectRatio="xMidYMid meet">

<g transform="translate(0.000000,500.000000) scale(0.100000,-0.100000)"
fill="#000000" stroke="none">
<path d="M2453 4493 c32 -2 81 -2 110 0 29 2 3 3 -58 3 -60 0 -84 -1 -52 -3z"/>
<path d="M2293 4483 c9 -2 23 -2 30 0 6 3 -1 5 -18 5 -16 0 -22 -2 -12 -5z"/>
<path d="M2683 4483 c9 -2 23 -2 30 0 6 3 -1 5 -18 5 -16 0 -22 -2 -12 -5z"/>
<path d="M2218 4473 c7 -3 16 -2 19 1 4 3 -2 6 -13 5 -11 0 -14 -3 -6 -6z"/>
<path d="M2768 4473 c7 -3 16 -2 19 1 4 3 -2 6 -13 5 -11 0 -14 -3 -6 -6z"/>
<path d="M2008 4433 c7 -3 16 -2 19 1 4 3 -2 6 -13 5 -11 0 -14 -3 -6 -6z"/>
<path d="M2368 4373 c18 -2 45 -2 60 0 15 2 0 4 -33 4 -33 0 -45 -2 -27 -4z"/>
<path d="M2578 4373 c18 -2 45 -2 60 0 15 2 0 4 -33 4 -33 0 -45 -2 -27 -4z"/>
<path d="M2263 4363 c9 -2 25 -2 35 0 9 3 1 5 -18 5 -19 0 -27 -2 -17 -5z"/>
<path d="M2703 4363 c9 -2 25 -2 35 0 9 3 1 5 -18 5 -19 0 -27 -2 -17 -5z"/>
<path d="M2203 4353 c9 -2 23 -2 30 0 6 3 -1 5 -18 5 -16 0 -22 -2 -12 -5z"/>
<path d="M2778 4353 c6 -2 18 -2 25 0 6 3 1 5 -13 5 -14 0 -19 -2 -12 -5z"/>
<path d="M2260 4315 c-99 -32 -124 -44 -185 -93 -38 -31 -88 -76 -110 -100
-22 -25 -57 -63 -78 -85 -39 -41 -82 -115 -73 -124 5 -5 -63 -113 -87 -138
-16 -16 -21 -37 -18 -80 1 -11 -5 -37 -14 -57 -19 -46 -19 -87 -1 -107 8 -10
18 -61 25 -126 6 -60 20 -139 31 -175 14 -46 16 -66 8 -71 -8 -5 -6 -18 6 -44
10 -20 18 -56 18 -81 0 -24 4 -47 10 -50 8 -5 9 46 6 170 -3 97 -2 194 3 214
20 81 30 140 35 201 6 73 22 110 60 140 15 12 24 21 20 21 -22 0 200 176 246
195 105 44 219 56 358 36 32 -5 63 -5 73 1 53 27 278 8 317 -27 9 -8 41 -26
72 -40 31 -14 62 -32 68 -40 7 -8 18 -15 26 -15 7 0 20 -18 30 -40 10 -22 24
-40 31 -40 7 0 13 -4 13 -9 0 -8 37 -24 53 -22 4 1 7 -4 7 -9 0 -6 7 -10 16
-10 11 0 15 -6 11 -20 -3 -12 1 -24 11 -29 14 -8 17 -28 19 -116 1 -78 6 -117
20 -148 15 -36 18 -69 18 -242 0 -125 4 -201 10 -203 6 -1 13 22 16 52 4 31
14 67 23 81 9 14 14 30 11 36 -4 5 1 26 10 45 9 19 22 62 30 97 7 34 21 85 30
112 13 43 31 152 38 234 1 13 8 26 15 29 17 5 -25 80 -50 88 -10 3 -18 12 -18
20 0 8 -9 23 -20 34 -11 11 -17 20 -12 20 4 0 0 5 -8 10 -12 7 -10 11 10 19
l25 10 -24 0 c-24 1 -24 1 -5 16 18 15 18 16 -6 13 -21 -3 -26 2 -28 24 l-3
28 -23 -27 -23 -27 10 53 c7 33 8 55 2 59 -6 4 -10 12 -11 17 -1 22 -26 75
-35 75 -5 0 -9 8 -9 19 0 24 -85 103 -141 131 -44 22 -168 60 -191 60 -7 -1
-2 -7 12 -15 14 -8 21 -14 17 -15 -12 0 -51 21 -58 32 -13 20 -247 59 -384 64
-139 5 -141 4 -255 -31z m1200 -675 c0 -5 -4 -10 -10 -10 -5 0 -10 5 -10 10 0
6 5 10 10 10 6 0 10 -4 10 -10z"/>
<path d="M2908 4333 c7 -3 16 -2 19 1 4 3 -2 6 -13 5 -11 0 -14 -3 -6 -6z"/>
<path d="M3320 4315 c25 -13 50 -24 55 -24 6 0 -10 11 -35 24 -25 13 -49 24
-55 24 -5 0 10 -11 35 -24z"/>
<path d="M2008 4313 c7 -3 16 -2 19 1 4 3 -2 6 -13 5 -11 0 -14 -3 -6 -6z"/>
<path d="M1630 4300 c-9 -6 -10 -10 -3 -10 6 0 15 5 18 10 8 12 4 12 -15 0z"/>
<path d="M3150 4260 c8 -5 20 -10 25 -10 6 0 3 5 -5 10 -8 5 -19 10 -25 10 -5
0 -3 -5 5 -10z"/>
<path d="M1770 4235 c-14 -8 -20 -14 -15 -14 6 0 21 6 35 14 14 8 21 14 15 14
-5 0 -21 -6 -35 -14z"/>
<path d="M3210 4235 c14 -8 30 -14 35 -14 6 0 -1 6 -15 14 -14 8 -29 14 -35
14 -5 0 1 -6 15 -14z"/>
<path d="M1500 4230 c-9 -6 -10 -10 -3 -10 6 0 15 5 18 10 8 12 4 12 -15 0z"/>
<path d="M1419 4179 l-24 -20 28 17 c15 9 27 18 27 20 0 8 -8 4 -31 -17z"/>
<path d="M3550 4197 c0 -3 12 -12 26 -22 15 -9 23 -12 20 -6 -7 11 -46 35 -46
28z"/>
<path d="M3344 4176 c11 -9 24 -16 30 -16 12 0 7 5 -24 19 -24 11 -24 11 -6
-3z"/>
<path d="M1630 4170 c-9 -6 -10 -10 -3 -10 6 0 15 5 18 10 8 12 4 12 -15 0z"/>
<path d="M3390 4156 c0 -3 14 -12 30 -21 17 -9 30 -13 30 -11 0 3 -13 12 -30
21 -16 9 -30 13 -30 11z"/>
<path d="M1349 4133 c-13 -16 -12 -17 4 -4 9 7 17 15 17 17 0 8 -8 3 -21 -13z"/>
<path d="M3715 4080 c10 -11 20 -20 23 -20 3 0 -3 9 -13 20 -10 11 -20 20 -23
20 -3 0 3 -9 13 -20z"/>
<path d="M1269 4073 c-13 -16 -12 -17 4 -4 16 13 21 21 13 21 -2 0 -10 -8 -17
-17z"/>
<path d="M1439 4053 c-13 -16 -12 -17 4 -4 9 7 17 15 17 17 0 8 -8 3 -21 -13z"/>
<path d="M1137 3958 c-97 -96 -98 -98 -13 -18 50 46 100 92 111 102 11 10 16
18 13 18 -4 0 -53 -46 -111 -102z"/>
<path d="M3750 4056 c0 -2 8 -10 18 -17 15 -13 16 -12 3 4 -13 16 -21 21 -21
13z"/>
<path d="M1369 4003 c-13 -16 -12 -17 4 -4 9 7 17 15 17 17 0 8 -8 3 -21 -13z"/>
<path d="M3610 4016 c0 -2 8 -10 18 -17 15 -13 16 -12 3 4 -13 16 -21 21 -21
13z"/>
<path d="M3790 4019 c3 -2 59 -56 125 -119 66 -63 97 -91 70 -62 -74 80 -175
176 -188 181 -7 2 -10 2 -7 0z"/>
<path d="M3650 3986 c0 -2 8 -10 18 -17 15 -13 16 -12 3 4 -13 16 -21 21 -21
13z"/>
<path d="M1287 3938 c-31 -31 -31 -32 -2 -8 16 14 34 28 40 32 5 5 6 8 2 8 -4
0 -22 -15 -40 -32z"/>
<path d="M3690 3957 c0 -2 15 -16 33 -33 l32 -29 -29 33 c-28 30 -36 37 -36
29z"/>
<path d="M3760 3896 c0 -2 8 -10 18 -17 15 -13 16 -12 3 4 -13 16 -21 21 -21
13z"/>
<path d="M1169 3833 c-13 -16 -12 -17 4 -4 9 7 17 15 17 17 0 8 -8 3 -21 -13z"/>
<path d="M3850 3808 c41 -45 50 -53 50 -45 0 2 -21 23 -47 47 l-48 45 45 -47z"/>
<path d="M969 3783 l-24 -28 28 24 c25 23 32 31 24 31 -2 0 -14 -12 -28 -27z"/>
<path d="M4060 3740 c17 -22 34 -40 37 -40 2 0 -10 18 -27 40 -17 22 -34 40
-37 40 -2 0 10 -18 27 -40z"/>
<path d="M1089 3743 c-13 -16 -12 -17 4 -4 9 7 17 15 17 17 0 8 -8 3 -21 -13z"/>
<path d="M924 3728 l-19 -23 23 19 c12 11 22 21 22 23 0 8 -8 2 -26 -19z"/>
<path d="M3930 3715 c13 -14 26 -25 28 -25 3 0 -5 11 -18 25 -13 14 -26 25
-28 25 -3 0 5 -11 18 -25z"/>
<path d="M4100 3686 c0 -2 8 -10 18 -17 15 -13 16 -12 3 4 -13 16 -21 21 -21
13z"/>
<path d="M864 3648 l-19 -23 23 19 c21 18 27 26 19 26 -2 0 -12 -10 -23 -22z"/>
<path d="M3970 3666 c0 -2 8 -10 18 -17 15 -13 16 -12 3 4 -13 16 -21 21 -21
13z"/>
<path d="M994 3628 l-19 -23 23 19 c21 18 27 26 19 26 -2 0 -12 -10 -23 -22z"/>
<path d="M4000 3626 c0 -2 8 -10 18 -17 15 -13 16 -12 3 4 -13 16 -21 21 -21
13z"/>
<path d="M4050 3556 c0 -2 8 -10 18 -17 15 -13 16 -12 3 4 -13 16 -21 21 -21
13z"/>
<path d="M766 3493 c-6 -14 -5 -15 5 -6 7 7 10 15 7 18 -3 3 -9 -2 -12 -12z"/>
<path d="M4252 3451 c12 -22 24 -38 26 -36 5 4 -37 75 -44 75 -3 0 6 -18 18
-39z"/>
<path d="M740 3450 c-6 -11 -8 -20 -6 -20 3 0 10 9 16 20 6 11 8 20 6 20 -3 0
-10 -9 -16 -20z"/>
<path d="M680 3329 c-7 -11 -10 -23 -7 -25 2 -2 9 7 15 21 14 30 7 33 -8 4z"/>
<path d="M1979 3317 c-77 -37 -109 -77 -112 -140 -2 -32 2 -42 16 -45 10 -2
17 3 17 11 0 8 8 17 18 21 9 3 33 16 52 28 29 18 51 21 125 22 50 1 99 -3 110
-8 l20 -8 -20 -8 c-11 -5 -50 -9 -86 -9 -99 -1 -171 -40 -189 -101 -8 -27 -5
-32 24 -53 19 -13 30 -29 28 -39 -2 -12 7 -19 40 -26 24 -6 35 -10 26 -11 -37
-2 -16 -21 25 -22 79 -2 102 3 126 27 l24 24 -31 0 c-17 0 -33 4 -36 8 -8 14
10 33 34 35 15 1 31 14 43 34 22 38 28 39 62 17 34 -23 31 -42 -7 -47 -19 -3
-11 -4 17 -3 52 1 57 7 40 49 -5 12 -2 17 9 17 9 0 20 -8 23 -17 4 -10 12 -22
20 -26 7 -5 11 -19 9 -32 -7 -36 18 -21 33 20 15 42 -3 149 -31 181 -10 11
-18 25 -18 31 0 15 -45 46 -97 66 -23 9 -81 19 -130 22 -48 3 -95 7 -103 10
-8 2 -45 -10 -81 -28z m226 -153 c28 -11 -1 -20 -47 -15 -37 4 -40 5 -18 12
34 10 45 10 65 3z m-94 -108 c14 -31 14 -34 -1 -28 -32 14 -62 41 -55 51 13
21 40 10 56 -23z m54 -106 c-3 -5 -25 -9 -48 -8 l-42 1 45 7 c25 4 46 8 48 8
2 1 0 -2 -3 -8z"/>
<path d="M3020 3320 c-14 -4 -46 -5 -71 -2 -29 3 -49 0 -53 -7 -5 -7 -25 -9
-60 -5 -50 6 -56 5 -86 -25 -18 -17 -37 -31 -41 -31 -5 0 -9 -9 -9 -21 0 -15
-5 -19 -15 -15 -17 6 -38 -26 -29 -47 3 -9 1 -31 -4 -51 -10 -33 -3 -54 12
-39 3 3 17 8 31 9 19 2 25 -2 25 -18 0 -17 4 -19 28 -13 15 3 35 14 45 22 20
19 19 19 42 -30 17 -37 19 -38 64 -35 41 3 48 7 61 35 16 35 19 37 38 25 17
-11 6 -37 -21 -50 -22 -11 -22 -11 3 -13 14 -1 31 -1 37 0 7 1 10 -5 7 -12 -9
-24 25 -28 47 -6 11 11 31 24 44 29 14 5 25 17 26 27 0 10 2 25 4 34 1 8 -4
24 -11 34 -10 14 -14 15 -14 4 0 -12 -2 -12 -10 1 -5 8 -12 12 -15 8 -3 -3
-28 3 -56 13 -27 11 -57 19 -67 19 -16 -1 -16 -1 1 -14 15 -12 7 -13 -54 -11
-39 2 -73 6 -77 9 -3 3 4 6 16 6 12 0 22 5 22 10 0 6 -11 10 -25 10 -14 0 -25
5 -25 10 0 15 38 27 113 35 77 8 152 -12 162 -45 3 -10 17 -21 31 -24 14 -4
22 -11 19 -16 -3 -6 2 -10 12 -10 11 0 23 -4 29 -10 5 -5 20 -7 33 -3 17 4 19
8 9 14 -11 8 -11 10 1 18 9 6 10 10 2 12 -6 2 -13 14 -15 26 -3 12 -12 33 -21
47 -9 14 -16 29 -16 33 1 4 -5 8 -12 8 -18 0 -84 35 -98 51 -12 15 -21 16 -59
4z"/>
<path d="M636 3225 c-9 -26 -7 -32 5 -12 6 10 9 21 6 23 -2 3 -7 -2 -11 -11z"/>
<path d="M1710 3093 c0 -18 47 -103 53 -96 15 14 6 61 -16 81 -24 23 -37 28
-37 15z"/>
<path d="M581 3054 c0 -11 3 -14 6 -6 3 7 2 16 -1 19 -3 4 -6 -2 -5 -13z"/>
<path d="M3410 3059 c0 -5 5 -7 10 -4 6 3 10 8 10 11 0 2 -4 4 -10 4 -5 0 -10
-5 -10 -11z"/>
<path d="M2775 3020 c11 -5 29 -8 40 -8 16 0 15 2 -5 8 -34 11 -60 11 -35 0z"/>
<path d="M4311 2994 c0 -11 3 -14 6 -6 3 7 2 16 -1 19 -3 4 -6 -2 -5 -13z"/>
<path d="M4431 2994 c0 -11 3 -14 6 -6 3 7 2 16 -1 19 -3 4 -6 -2 -5 -13z"/>
<path d="M561 2984 c0 -11 3 -14 6 -6 3 7 2 16 -1 19 -3 4 -6 -2 -5 -13z"/>
<path d="M1780 2906 c0 -35 -3 -66 -7 -68 -5 -1 -6 -106 -3 -233 6 -226 7
-232 38 -323 42 -121 66 -173 117 -252 49 -76 59 -101 46 -110 -19 -11 8 -77
42 -102 94 -70 140 -100 123 -80 -12 13 -14 22 -7 22 7 0 9 4 6 10 -3 6 1 7
10 4 9 -4 14 -12 12 -18 -3 -6 6 -12 19 -12 13 -1 47 -19 75 -40 41 -30 62
-38 103 -40 29 -2 63 -7 77 -12 43 -17 135 -3 236 34 109 39 161 63 180 81 7
6 23 15 36 19 12 4 24 10 27 13 10 13 130 91 140 91 6 0 8 5 5 10 -3 6 -2 10
4 10 6 0 19 19 29 43 10 23 39 66 65 95 25 30 48 66 52 80 4 15 12 34 19 42
10 13 54 106 77 165 28 72 51 406 30 420 -7 4 -11 -6 -11 -27 0 -18 -4 -49
-10 -67 -5 -19 -11 -49 -12 -68 -1 -18 -12 -44 -25 -59 -12 -14 -25 -47 -29
-73 l-7 -46 -13 35 c-12 34 -13 34 -13 7 -1 -15 -7 -30 -15 -33 -10 -4 -12
-16 -9 -44 7 -50 -3 -90 -23 -90 -8 0 -17 -7 -20 -15 -5 -13 -9 -13 -23 4 -16
19 -17 18 -39 -20 -12 -21 -26 -39 -31 -39 -5 0 -8 -19 -8 -42 1 -36 -2 -43
-19 -43 -10 0 -18 -6 -17 -12 5 -25 -26 -12 -36 15 -9 21 -10 22 -7 4 4 -18 2
-21 -9 -12 -7 6 -16 26 -19 45 -4 19 -12 35 -17 35 -7 0 -8 -12 -4 -30 4 -16
3 -35 -1 -42 -5 -7 -7 -28 -5 -46 2 -25 -4 -39 -23 -57 -14 -13 -26 -28 -26
-32 -1 -4 -16 -15 -36 -24 -33 -16 -35 -16 -46 5 -7 13 -13 16 -16 8 -6 -20
-20 -14 -56 23 -19 19 -39 35 -44 35 -15 0 -19 90 -5 117 6 12 9 24 5 25 -57
13 -296 17 -308 5 -9 -9 19 -67 33 -67 7 0 12 -11 11 -25 -1 -14 -5 -25 -8
-25 -10 0 -75 -65 -94 -95 -11 -17 -21 -24 -24 -17 -2 6 -16 12 -30 12 -15 0
-32 4 -37 8 -18 13 -75 89 -75 101 0 6 -4 11 -9 11 -12 0 -5 89 8 104 5 6 11
22 13 36 2 17 10 26 25 28 14 2 23 11 25 25 3 19 9 22 40 19 20 -1 39 2 43 8
4 6 39 7 96 3 105 -7 126 11 25 22 -56 6 -65 9 -68 28 -3 23 -20 26 -65 12
-31 -10 -29 9 2 23 14 6 25 20 26 29 0 12 2 13 6 5 4 -10 9 -10 23 3 14 13 40
17 105 18 84 1 87 2 97 26 l10 26 9 -23 c8 -20 14 -22 64 -20 45 2 55 6 55 21
0 25 18 21 22 -5 4 -30 26 -34 37 -6 l10 23 0 -22 c1 -16 7 -23 21 -23 11 0
20 -4 20 -9 0 -5 14 -14 30 -21 47 -20 37 -34 -20 -27 l-50 6 16 -24 c13 -20
14 -25 3 -26 -24 -1 -82 -9 -134 -19 -41 -7 -34 -8 40 -4 50 3 115 7 146 10
55 5 56 5 68 -24 20 -48 41 -49 41 -2 0 34 3 38 20 35 22 -4 25 0 34 54 5 30
2 38 -36 73 -23 21 -60 44 -82 50 -23 7 -55 22 -72 35 -26 19 -43 23 -106 23
-66 0 -78 -3 -102 -25 -32 -29 -42 -31 -63 -9 -14 13 -14 17 -2 25 8 5 21 9
29 9 9 0 25 6 36 14 11 8 39 19 63 26 35 9 45 9 52 -1 4 -7 5 -17 3 -21 -12
-18 34 -6 52 14 18 20 18 21 1 15 -11 -4 -28 -1 -40 8 -32 23 -71 18 -133 -15
-57 -30 -70 -30 -114 2 -14 10 -42 21 -61 24 -30 5 -40 2 -58 -17 l-22 -24
-20 24 c-23 28 -30 25 -18 -7 5 -12 20 -27 34 -34 30 -14 32 -28 5 -35 -11 -3
-20 -9 -20 -14 0 -5 -8 -9 -19 -9 -10 0 -24 -7 -31 -15 -7 -9 -19 -14 -26 -11
-7 3 -33 -6 -58 -19 -24 -13 -47 -21 -50 -18 -3 4 -6 -1 -6 -9 0 -8 -9 -27
-21 -42 -13 -17 -18 -33 -14 -47 4 -12 7 -36 7 -55 0 -19 3 -32 7 -30 4 3 13
-8 20 -24 11 -27 10 -32 -16 -65 -18 -23 -29 -30 -31 -21 -2 8 -14 17 -28 20
-15 4 -24 13 -24 27 0 11 -9 29 -20 41 -11 12 -20 33 -20 46 0 17 -4 22 -14
19 -8 -3 -17 1 -20 9 -3 8 -13 14 -22 14 -13 0 -15 6 -10 30 4 23 1 33 -14 42
-11 7 -20 18 -20 25 0 7 -4 13 -9 13 -5 0 -22 21 -38 48 l-28 47 2 203 c1 111
0 202 -2 202 -3 0 -5 -29 -5 -64z m660 -304 l25 -17 -44 -3 c-42 -3 -81 16
-81 41 0 13 70 -1 100 -21z m787 -234 c-3 -8 -6 -5 -6 6 -1 11 2 17 5 13 3 -3
4 -12 1 -19z m-592 -287 c3 -5 1 -13 -5 -16 -6 -4 -8 -15 -5 -26 5 -15 3 -17
-11 -12 -13 5 -15 2 -9 -18 5 -18 4 -21 -4 -9 -16 22 -13 60 4 60 9 0 12 6 9
15 -7 16 11 21 21 6z m-135 -53 c0 -13 -4 -30 -9 -37 -8 -12 -11 -9 -16 11 -7
28 -1 48 16 48 5 0 9 -10 9 -22z"/>
<path d="M4451 2914 c0 -11 3 -14 6 -6 3 7 2 16 -1 19 -3 4 -6 -2 -5 -13z"/>
<path d="M3312 2860 c0 -14 2 -19 5 -12 2 6 2 18 0 25 -3 6 -5 1 -5 -13z"/>
<path d="M4472 2790 c0 -14 2 -19 5 -12 2 6 2 18 0 25 -3 6 -5 1 -5 -13z"/>
<path d="M522 2780 c0 -14 2 -19 5 -12 2 6 2 18 0 25 -3 6 -5 1 -5 -13z"/>
<path d="M4361 2734 c0 -11 3 -14 6 -6 3 7 2 16 -1 19 -3 4 -6 -2 -5 -13z"/>
<path d="M631 2724 c0 -11 3 -14 6 -6 3 7 2 16 -1 19 -3 4 -6 -2 -5 -13z"/>
<path d="M4482 2715 c0 -16 2 -22 5 -12 2 9 2 23 0 30 -3 6 -5 -1 -5 -18z"/>
<path d="M512 2695 c0 -16 2 -22 5 -12 2 9 2 23 0 30 -3 6 -5 -1 -5 -18z"/>
<path d="M4373 2635 c0 -22 2 -30 4 -17 2 12 2 30 0 40 -3 9 -5 -1 -4 -23z"/>
<path d="M623 2625 c0 -22 2 -30 4 -17 2 12 2 30 0 40 -3 9 -5 -1 -4 -23z"/>
<path d="M4493 2580 c0 -36 2 -50 4 -32 2 17 2 47 0 65 -2 17 -4 3 -4 -33z"/>
<path d="M504 2505 c0 -55 1 -76 3 -47 2 29 2 74 0 100 -2 26 -3 2 -3 -53z"/>
<path d="M4493 2400 c0 -30 2 -43 4 -27 2 15 2 39 0 55 -2 15 -4 2 -4 -28z"/>
<path d="M623 2390 c0 -30 2 -43 4 -27 2 15 2 39 0 55 -2 15 -4 2 -4 -28z"/>
<path d="M3155 2360 c-4 -12 -5 -24 -2 -27 3 -2 8 5 12 17 4 12 5 24 2 27 -3
2 -8 -5 -12 -17z"/>
<path d="M4373 2345 c0 -22 2 -30 4 -17 2 12 2 30 0 40 -3 9 -5 -1 -4 -23z"/>
<path d="M2505 2342 c-32 -6 -42 -22 -14 -21 35 1 67 14 48 20 -8 3 -23 3 -34
1z"/>
<path d="M511 2304 c0 -11 3 -14 6 -6 3 7 2 16 -1 19 -3 4 -6 -2 -5 -13z"/>
<path d="M4482 2285 c0 -16 2 -22 5 -12 2 9 2 23 0 30 -3 6 -5 -1 -5 -18z"/>
<path d="M632 2275 c0 -16 2 -22 5 -12 2 9 2 23 0 30 -3 6 -5 -1 -5 -18z"/>
<path d="M4361 2254 c0 -11 3 -14 6 -6 3 7 2 16 -1 19 -3 4 -6 -2 -5 -13z"/>
<path d="M521 2224 c0 -11 3 -14 6 -6 3 7 2 16 -1 19 -3 4 -6 -2 -5 -13z"/>
<path d="M4472 2210 c0 -14 2 -19 5 -12 2 6 2 18 0 25 -3 6 -5 1 -5 -13z"/>
<path d="M641 2204 c0 -11 3 -14 6 -6 3 7 2 16 -1 19 -3 4 -6 -2 -5 -13z"/>
<path d="M4351 2194 c0 -11 3 -14 6 -6 3 7 2 16 -1 19 -3 4 -6 -2 -5 -13z"/>
<path d="M661 2084 c0 -11 3 -14 6 -6 3 7 2 16 -1 19 -3 4 -6 -2 -5 -13z"/>
<path d="M4331 2074 c0 -11 3 -14 6 -6 3 7 2 16 -1 19 -3 4 -6 -2 -5 -13z"/>
<path d="M671 2044 c0 -11 3 -14 6 -6 3 7 2 16 -1 19 -3 4 -6 -2 -5 -13z"/>
<path d="M1897 1809 c-22 -57 -133 -219 -150 -219 -20 0 -205 -77 -362 -150
-172 -80 -325 -141 -337 -134 -18 11 92 -113 144 -162 172 -162 372 -294 586
-384 79 -34 273 -94 335 -105 35 -6 37 -4 29 12 -9 18 -35 126 -47 193 -6 37
-35 165 -84 370 -17 69 -33 145 -37 170 -3 25 -15 83 -26 130 -11 47 -23 139
-27 205 l-6 120 -18 -46z"/>
<path d="M3113 1800 c5 -70 -9 -225 -28 -315 -7 -38 -21 -117 -29 -175 -9 -58
-32 -209 -51 -337 -19 -128 -35 -246 -35 -263 0 -16 -5 -30 -12 -30 -6 0 -9
-3 -6 -6 9 -8 166 42 274 87 221 92 418 224 590 394 87 87 227 247 164 188
l-23 -21 -81 35 c-44 19 -95 39 -112 44 -17 5 -74 32 -125 60 -122 67 -216
110 -312 144 -73 26 -79 31 -124 93 -25 36 -57 86 -70 111 l-23 46 3 -55z"/>
<path d="M660 1715 c0 -5 5 -17 10 -25 5 -8 10 -10 10 -5 0 6 -5 17 -10 25 -5
8 -10 11 -10 5z"/>
<path d="M4191 1683 c-10 -26 -10 -27 4 -9 8 11 15 23 15 28 0 15 -7 8 -19
-19z"/>
<path d="M4311 1663 c-10 -26 -10 -27 4 -9 8 11 15 23 15 28 0 15 -7 8 -19
-19z"/>
<path d="M696 1637 c3 -10 9 -15 12 -12 3 3 0 11 -7 18 -10 9 -11 8 -5 -6z"/>
<path d="M826 1637 c3 -10 9 -15 12 -12 3 3 0 11 -7 18 -10 9 -11 8 -5 -6z"/>
<path d="M860 1570 c6 -11 13 -20 16 -20 2 0 0 9 -6 20 -6 11 -13 20 -16 20
-2 0 0 -9 6 -20z"/>
<path d="M4261 1563 c-10 -26 -10 -27 4 -9 8 11 15 23 15 28 0 15 -7 8 -19
-19z"/>
<path d="M4115 1544 c-9 -15 -12 -23 -6 -20 11 7 35 46 28 46 -3 0 -12 -12
-22 -26z"/>
<path d="M4230 1510 c-6 -11 -8 -20 -6 -20 3 0 10 9 16 20 6 11 8 20 6 20 -3
0 -10 -9 -16 -20z"/>
<path d="M4059 1453 c-13 -16 -12 -17 4 -4 16 13 21 21 13 21 -2 0 -10 -8 -17
-17z"/>
<path d="M4185 1434 c-9 -15 -12 -23 -6 -20 11 7 35 46 28 46 -3 0 -12 -12
-22 -26z"/>
<path d="M810 1426 c0 -2 8 -10 18 -17 15 -13 16 -12 3 4 -13 16 -21 21 -21
13z"/>
<path d="M970 1396 c0 -2 8 -10 18 -17 15 -13 16 -12 3 4 -13 16 -21 21 -21
13z"/>
<path d="M2553 1393 c9 -2 17 -9 17 -13 0 -6 -10 -6 -24 0 -20 7 -32 4 -63
-19 -49 -37 -123 -114 -101 -106 12 5 20 1 25 -11 4 -11 14 -24 22 -31 10 -8
11 -12 4 -13 -6 0 -15 5 -18 10 -4 6 -12 7 -18 3 -7 -5 -25 -10 -42 -12 -32
-3 -65 -26 -65 -46 0 -6 14 -24 31 -41 17 -16 47 -51 66 -77 l36 -49 -36 -116
c-20 -65 -41 -143 -47 -175 -5 -32 -12 -62 -15 -68 -6 -9 40 -11 215 -10 115
0 234 12 219 22 -7 4 -19 23 -26 41 l-11 33 -1 -33 c-1 -27 -3 -31 -15 -20 -7
7 -11 19 -9 26 3 7 1 18 -5 25 -6 7 -11 45 -11 85 0 75 -7 104 -21 82 -12 -20
-32 0 -27 26 2 13 1 25 -3 26 -11 5 -21 68 -10 68 5 0 8 20 7 45 -3 60 13 41
19 -21 4 -53 15 -70 38 -61 12 5 13 13 5 39 -5 18 -9 37 -9 41 0 14 192 197
207 197 7 0 13 4 13 10 0 10 -54 75 -85 102 -28 24 -102 48 -144 47 -32 -1
-33 -2 -11 -8 29 -8 18 -16 -27 -20 -25 -2 -33 2 -33 13 0 12 -9 16 -32 15
-18 -1 -25 -3 -15 -6z"/>
<path d="M4009 1383 c-13 -16 -12 -17 4 -4 16 13 21 21 13 21 -2 0 -10 -8 -17
-17z"/>
<path d="M1015 1340 c10 -11 20 -20 23 -20 3 0 -3 9 -13 20 -10 11 -20 20 -23
20 -3 0 3 -9 13 -20z"/>
<path d="M4109 1323 c-13 -16 -12 -17 4 -4 16 13 21 21 13 21 -2 0 -10 -8 -17
-17z"/>
<path d="M4079 1283 c-13 -16 -12 -17 4 -4 16 13 21 21 13 21 -2 0 -10 -8 -17
-17z"/>
<path d="M910 1286 c0 -2 8 -10 18 -17 15 -13 16 -12 3 4 -13 16 -21 21 -21
13z"/>
<path d="M4049 1243 c-13 -16 -12 -17 4 -4 16 13 21 21 13 21 -2 0 -10 -8 -17
-17z"/>
<path d="M3989 1173 l-34 -38 38 34 c20 19 37 36 37 38 0 8 -8 0 -41 -34z"/>
<path d="M1035 1140 c33 -33 62 -60 64 -60 3 0 -21 27 -54 60 -33 33 -62 60
-64 60 -3 0 21 -27 54 -60z"/>
<path d="M1155 1020 c21 -22 41 -40 44 -40 3 0 -13 18 -34 40 -21 22 -41 40
-44 40 -3 0 13 -18 34 -40z"/>
<path d="M3809 993 l-24 -28 28 24 c25 23 32 31 24 31 -2 0 -14 -12 -28 -27z"/>
<path d="M3749 943 c-13 -16 -12 -17 4 -4 9 7 17 15 17 17 0 8 -8 3 -21 -13z"/>
<path d="M2918 663 c7 -3 16 -2 19 1 4 3 -2 6 -13 5 -11 0 -14 -3 -6 -6z"/>
<path d="M2188 643 c6 -2 18 -2 25 0 6 3 1 5 -13 5 -14 0 -19 -2 -12 -5z"/>
<path d="M2798 643 c6 -2 18 -2 25 0 6 3 1 5 -13 5 -14 0 -19 -2 -12 -5z"/>
<path d="M2248 633 c6 -2 18 -2 25 0 6 3 1 5 -13 5 -14 0 -19 -2 -12 -5z"/>
<path d="M2068 543 c7 -3 16 -2 19 1 4 3 -2 6 -13 5 -11 0 -14 -3 -6 -6z"/>
<path d="M2918 543 c7 -3 16 -2 19 1 4 3 -2 6 -13 5 -11 0 -14 -3 -6 -6z"/>
<path d="M2198 523 c7 -3 16 -2 19 1 4 3 -2 6 -13 5 -11 0 -14 -3 -6 -6z"/>
<path d="M2788 523 c7 -3 16 -2 19 1 4 3 -2 6 -13 5 -11 0 -14 -3 -6 -6z"/>
<path d="M2263 513 c9 -2 23 -2 30 0 6 3 -1 5 -18 5 -16 0 -22 -2 -12 -5z"/>
<path d="M2713 513 c9 -2 23 -2 30 0 6 3 -1 5 -18 5 -16 0 -22 -2 -12 -5z"/>
<path d="M2363 503 c15 -2 39 -2 55 0 15 2 2 4 -28 4 -30 0 -43 -2 -27 -4z"/>
<path d="M2583 503 c15 -2 37 -2 50 0 12 2 0 4 -28 4 -27 0 -38 -2 -22 -4z"/>
</g>
</svg>
